<svg width="500" height="500" viewBox="0 0 500 500" fill="none" xmlns="http://www.w3.org/2000/svg">
<rect width="500" height="500" fill="white"/>
<path d="M66.4336 108.331C68.7907 108.331 70.9294 109.712 71.9004 111.859L132.505 245.938C134.419 250.192 135.768 253.88 136.052 255.669C136.104 255.997 136.376 256.265 136.708 256.265C137.04 256.265 137.314 255.998 137.365 255.67C137.672 253.702 139.171 249.151 140.67 245.938L201.274 111.859C202.245 109.712 204.384 108.331 206.741 108.331H237.812C238.409 108.331 238.893 108.815 238.893 109.412C238.893 110.009 238.409 110.493 237.812 110.493H230.727C218.96 110.493 217.278 114.095 217.278 121.06C217.278 122.981 217.278 125.142 217.519 127.544L220.633 203.233C220.765 206.448 223.41 208.986 226.627 208.986H285.654C286.384 208.987 286.975 209.578 286.975 210.308C286.974 211.037 286.383 211.628 285.653 211.628H278.569C267.042 211.628 265.601 212.589 265.601 224.116V287.04C265.601 290.354 268.287 293.04 271.601 293.04H287.781C291.062 293.04 293.717 290.393 293.929 287.119C297.047 238.799 329.975 207.066 377.991 207.065C428.183 207.065 461.804 242.368 461.804 295.201C461.804 348.274 428.183 383.576 377.991 383.576C329.966 383.576 297.036 351.832 293.928 303.283C293.718 300.009 291.062 297.362 287.781 297.362H271.601C268.287 297.362 265.601 300.049 265.601 303.362V367.006C265.601 378.533 267.042 379.494 278.569 379.494H285.894C286.49 379.494 286.975 379.978 286.975 380.575C286.974 381.172 286.49 381.655 285.894 381.655H226.816C226.22 381.655 225.736 381.172 225.735 380.575C225.735 379.979 226.219 379.494 226.815 379.494H234.141C245.668 379.494 246.869 378.533 246.869 367.006V287C246.869 283.686 244.183 281 240.869 281H182.096C181.499 281 181.016 280.516 181.016 279.92C181.016 279.323 181.5 278.839 182.097 278.839H189.661C202.629 278.839 204.311 275.477 204.311 269.713V265.391L199.508 138.831C199.289 134.889 199.269 131.546 199.268 128.984C199.267 128.586 198.945 128.264 198.547 128.264C198.149 128.264 197.786 128.583 197.67 128.964C197.206 130.483 195.756 133.974 193.983 138.11L129.383 281.961L128.758 283.421C128.7 283.555 128.569 283.642 128.423 283.642C128.277 283.642 128.145 283.555 128.088 283.421L127.462 281.961L63.8223 140.752C61.9463 136.583 61.3373 132.595 61.209 131.144C61.1855 130.879 60.9655 130.666 60.7002 130.666C60.4349 130.666 60.22 130.881 60.2197 131.146C60.2185 133.095 60.2016 134.834 59.9795 138.831L53.9756 264.91C53.7354 267.071 53.4951 268.993 53.4951 270.434C53.4951 276.197 55.6569 278.839 68.8652 278.839H76.4307C77.0272 278.839 77.5107 279.323 77.5107 279.92C77.5105 280.516 77.0263 281 76.4297 281H32.2422C31.6456 281 31.1614 280.516 31.1611 279.92C31.1611 279.323 31.6454 278.839 32.2422 278.839H35.0039C47.2515 278.839 49.1731 275.237 49.8936 261.788L56.377 123.221V118.178C56.377 112.894 54.9359 110.493 44.6094 110.493H36.085C35.4879 110.493 35.0039 110.009 35.0039 109.412C35.0039 108.815 35.4879 108.331 36.085 108.331H66.4336ZM377.031 211.388C336.446 211.388 314.592 239.246 314.592 290.878C314.592 348.514 336.926 379.254 378.712 379.254C419.057 379.254 440.911 351.636 440.911 299.764C440.911 242.368 418.337 211.388 377.031 211.388ZM222.044 328.08L221.36 328.12L221.199 325.465C220.877 320.757 217.055 318.022 212.951 318.021C206.514 318.021 203.054 322.688 203.054 331.339C203.054 340.995 206.795 346.146 213.756 346.146C216.411 346.105 219.067 345.059 220.717 342.846V337.575C220.717 335.322 219.228 333.833 216.975 333.833H212.308V333.109H227.314V333.833H223.895V348.157H223.533V345.341C223.493 344.375 222.768 343.369 221.883 343.369C221.521 343.369 221.119 343.571 220.757 343.933C218.946 345.864 216.331 346.869 213.595 346.869C205.146 346.869 199.553 340.914 199.553 331.982C199.553 323.171 205.065 317.297 213.354 317.297C216.089 317.297 218.665 318.142 220.717 319.832C220.918 320.033 221.079 320.314 221.159 320.596L221.32 320.556C221.24 320.234 221.199 319.993 221.199 319.631L220.998 315.728L221.4 315.688L222.044 328.08ZM37.1562 318.182C37.1562 318.785 37.2766 319.349 37.4375 319.912L45.7656 342.323C45.806 342.445 46.0078 343.209 46.0078 343.771H46.4102C46.4102 343.651 46.4099 343.168 46.6914 342.323L52.4453 323.171L51.6406 320.476C51.0774 318.585 50.715 317.981 49.2666 317.98H48.3408V317.619H57.3535V317.98H53.5312V318.062C54.0945 318.263 54.5771 319.188 54.7783 319.912L61.498 342.323C61.6589 343.047 61.7393 343.49 61.7393 343.771H62.3027C62.3027 343.45 62.3834 342.967 62.665 342.202L70.5908 320.436C70.7517 319.993 70.832 319.59 70.832 319.269C70.832 318.424 70.2283 317.98 68.8604 317.98H67.332V317.619H74.1719V317.98H73.5684C72.2808 317.98 71.9188 318.906 71.3555 320.476L61.8193 346.708L59.5664 346.909L52.8076 324.459L46.1279 346.749L43.875 346.909L34.2988 320.476C33.6953 318.504 33.4141 317.981 31.9658 317.98H31.3623V317.619H37.1562V318.182ZM89.1748 317.297C96.1756 317.297 102.05 322.206 102.05 329.488V329.689C102.05 330.373 101.487 330.856 100.803 330.856H77.9092V331.339C77.9092 340.995 82.3357 346.146 89.2158 346.146C94.6069 346.145 98.8314 343.852 101.165 339.909L101.769 340.352C99.274 344.455 94.7677 346.869 89.0947 346.869C80.6454 346.869 74.3281 340.915 74.3281 331.982C74.3282 323.171 80.243 317.297 89.1748 317.297ZM115.445 317.619C124.86 317.619 131.178 323.413 131.178 332.063C131.178 340.754 124.86 346.548 115.445 346.548H104.1V346.186H105.508C107.439 346.186 107.64 345.984 107.64 344.053V320.476C107.64 318.544 107.439 317.981 105.508 317.98H104.1V317.619H115.445ZM144.521 317.619C153.936 317.619 160.253 323.413 160.253 332.063C160.253 340.754 153.936 346.548 144.521 346.548H133.175V346.186H134.583C136.514 346.186 136.716 345.984 136.716 344.053V320.476C136.716 318.544 136.514 317.98 134.583 317.98H133.175V317.619H144.521ZM172.511 318.062H171.103C169.171 318.062 168.93 318.222 168.93 320.153V344.093C168.93 346.024 169.171 346.186 171.103 346.186H172.511V346.548H162.251V346.186H163.659C165.59 346.186 165.792 346.024 165.792 344.093V320.073C165.792 318.142 165.59 317.98 163.659 317.98H162.251V317.619H172.511V318.062ZM179.681 321.32C179.681 321.964 179.641 325.182 179.601 325.545H179.882C179.962 324.821 180.284 323.654 180.525 322.93C181.692 319.51 184.549 317.297 187.889 317.297C192.234 317.297 194.648 319.751 194.648 323.372V344.053C194.648 345.984 194.849 346.186 196.78 346.186H198.229V346.548H187.969V346.186H191.872V346.104C191.591 345.823 191.51 345.702 191.51 345.059V324.057C191.51 320.114 190.383 317.98 187.566 317.98C183.463 317.981 180.324 321.924 180.324 327.798V344.053C180.324 345.984 180.566 346.186 182.497 346.186H183.905V346.548H173.646V346.186H175.054C176.985 346.186 177.187 345.984 177.187 344.053V321.119C177.187 320.435 176.623 319.832 175.818 319.832H175.697L173.324 320.033L173.283 319.791L176.382 319.147C177.991 318.826 179.359 317.86 179.359 316.211V316.05H179.681V321.32ZM110.095 318.383C110.578 318.866 110.778 319.349 110.778 320.274V343.892C110.778 344.817 110.577 345.3 110.095 345.783V345.823H114.359C123.01 345.823 127.717 341.035 127.717 332.063C127.717 323.172 123.01 318.343 114.359 318.343H110.095V318.383ZM139.17 318.383C139.653 318.866 139.854 319.349 139.854 320.274V343.892C139.854 344.817 139.653 345.3 139.17 345.783V345.823H143.436C152.086 345.823 156.793 341.035 156.793 332.063C156.793 323.172 152.086 318.343 143.436 318.343H139.17V318.383ZM89.0146 318.021C82.1345 318.021 78.2713 322.286 77.9092 330.132L98.1475 329.851C98.3486 329.851 98.4696 329.729 98.4697 329.488C98.4697 322.608 94.6875 318.022 89.0146 318.021ZM227.21 211.148C223.799 211.148 221.075 213.988 221.215 217.396L223.042 261.788C223.522 275.477 225.204 278.839 238.412 278.839H240.869C244.183 278.839 246.869 276.153 246.869 272.839V223.636C246.869 212.109 245.668 211.148 234.141 211.148H227.21ZM284.355 168.703C285.752 168.703 286.719 169.616 286.719 171.12C286.719 172.517 285.859 173.483 284.355 173.483C282.959 173.483 281.939 172.624 281.938 171.12C281.938 169.724 282.851 168.703 284.355 168.703ZM351.604 168.703C353 168.703 353.967 169.616 353.967 171.12C353.967 172.517 353.107 173.483 351.604 173.483C350.207 173.483 349.186 172.624 349.186 171.12C349.186 169.724 350.1 168.703 351.604 168.703ZM265.97 133.95C272.684 133.95 277.196 141.201 277.196 152.052C277.196 164.889 272.308 173.43 265.003 173.43C260.706 173.376 258.128 170.637 256.893 169.616V164.083H257.376V164.835C258.021 168.111 259.954 172.463 265.003 172.463C270.321 172.463 273.168 163.654 273.168 152.535H272.953C271.288 156.671 268.065 158.712 264.788 158.712C258.772 158.712 254.744 153.662 254.744 146.089C254.744 138.515 259.256 133.95 265.97 133.95ZM304.192 133.95C311.927 133.95 317.138 141.846 317.138 153.663C317.138 165.534 311.927 173.43 304.192 173.43C296.404 173.429 291.248 165.534 291.248 153.663C291.248 141.846 296.404 133.95 304.192 133.95ZM332.552 133.95C338.245 133.95 342.06 137.334 342.06 142.383C342.06 146.358 339.052 150.011 335.561 150.655V150.709C340.878 151.407 344.476 156.349 344.477 161.988C344.477 168.864 339.696 173.43 332.552 173.43C325.354 173.429 320.628 168.864 320.628 161.988C320.628 156.349 324.227 151.407 329.544 150.709V150.655C326.053 150.011 323.099 146.358 323.099 142.383C323.099 137.334 326.858 133.95 332.552 133.95ZM396.305 133.95C404.039 133.95 409.25 141.846 409.25 153.663C409.25 165.534 404.039 173.429 396.305 173.43C388.516 173.43 383.359 165.534 383.359 153.663C383.359 141.846 388.516 133.95 396.305 133.95ZM449.796 133.95C454.039 134.058 456.672 136.743 457.907 137.764V143.296H457.424V142.544C456.779 139.267 454.845 134.917 449.796 134.917C444.478 134.917 441.632 143.726 441.632 154.845H441.847C443.512 150.709 446.734 148.667 450.011 148.667C456.027 148.667 460.056 153.716 460.056 161.29C460.056 168.864 455.543 173.43 448.829 173.43C442.061 173.429 437.604 166.232 437.604 155.328C437.604 142.544 442.437 133.95 449.796 133.95ZM239.656 133.95C245.941 133.95 250.184 137.871 250.184 143.672C250.184 151.138 242.234 159.948 234.069 167.736C233.532 168.22 232.136 169.509 231.813 169.67L231.975 169.938C232.351 169.885 234.23 169.67 235.09 169.67H242.986C248.035 169.67 250.667 169.186 250.989 164.298L251.097 162.794H251.688L251.097 173H229.88V169.777C230.363 169.724 232.726 168.434 234.445 166.125C240.945 157.531 246.37 149.366 246.37 143.027C246.37 137.764 244.007 134.917 239.656 134.917C235.091 134.917 232.834 138.515 232.297 142.114V143.94H231.384V134.487H231.867V136.797C233.855 135.024 236.863 133.95 239.656 133.95ZM368.486 133.95C374.771 133.95 379.015 137.871 379.015 143.672C379.015 151.138 371.065 159.948 362.9 167.736C362.363 168.22 360.966 169.509 360.644 169.67L360.805 169.938C361.181 169.885 363.061 169.67 363.921 169.67H371.816C376.866 169.67 379.498 169.186 379.82 164.298L379.928 162.794H380.519L379.928 173H358.71V169.777C359.193 169.724 361.558 168.435 363.276 166.125C369.776 157.531 375.2 149.366 375.2 143.027C375.2 137.763 372.837 134.917 368.486 134.917C363.921 134.917 361.664 138.515 361.127 142.114V143.94H360.214V134.487H360.697V136.797C362.685 135.024 365.693 133.95 368.486 133.95ZM422.516 133.95C428.8 133.95 433.043 137.871 433.043 143.672C433.043 151.138 425.093 159.948 416.929 167.736C416.391 168.22 414.995 169.509 414.673 169.67L414.834 169.938C415.21 169.885 417.09 169.67 417.949 169.67H425.846C430.895 169.67 433.526 169.186 433.849 164.298L433.956 162.794H434.547L433.956 173H412.739V169.777C413.223 169.724 415.586 168.434 417.305 166.125C423.804 157.531 429.229 149.366 429.229 143.027C429.229 137.764 426.866 134.917 422.516 134.917C417.95 134.917 415.693 138.515 415.156 142.114V143.94H414.243V134.487H414.727V136.797C416.714 135.024 419.722 133.95 422.516 133.95ZM303.978 134.917C298.284 134.917 295.276 140.826 295.276 151.783C295.276 165.265 298.445 172.463 304.354 172.463C309.993 172.463 313.109 166.608 313.109 155.597C313.109 142.168 309.886 134.917 303.978 134.917ZM332.552 151.3C327.449 151.3 324.71 155.06 324.71 161.988C324.71 168.81 327.449 172.463 332.552 172.463C337.655 172.463 340.448 168.81 340.448 161.988C340.448 155.059 337.655 151.3 332.552 151.3ZM396.09 134.917C390.396 134.917 387.388 140.825 387.388 151.783C387.388 165.265 390.557 172.463 396.466 172.463C402.106 172.463 405.221 166.608 405.221 155.597C405.221 142.168 401.998 134.917 396.09 134.917ZM449.688 149.635C445.982 149.635 441.9 154.2 441.847 160.968C442.438 168.273 444.854 172.463 448.829 172.463C453.449 172.463 455.974 168.595 455.974 161.29C455.974 153.716 453.771 149.635 449.688 149.635ZM265.97 134.917C261.297 134.917 258.826 138.838 258.826 146.089C258.826 153.716 260.975 157.745 265.11 157.745C268.817 157.745 272.899 153.179 272.953 146.411C272.362 139.106 269.945 134.917 265.97 134.917ZM332.552 134.917C328.524 134.917 326.429 137.602 326.429 142.49C326.429 147.593 328.523 150.333 332.552 150.333C336.527 150.333 338.729 147.593 338.729 142.49C338.729 137.602 336.527 134.917 332.552 134.917Z" fill="#7718AF"/>
</svg>
